<svg width="122" height="27" viewBox="0 0 122 27" fill="none" xmlns="http://www.w3.org/2000/svg">
<path d="M24.6863 25.6881H24C24 24.6023 24.3371 22.5231 25.0114 19.4505C25.7098 16.3779 26.059 14.6337 26.059 14.2178C26.059 13.4554 25.7219 12.6469 25.0476 11.7921L24.7225 11.3762L24.7586 10.9257C26.059 10.5792 28.1421 10.4059 31.0078 10.4059C31.345 10.8449 31.5136 11.5611 31.5136 12.5545C33.6809 11.0066 35.4028 10.2327 36.6791 10.2327C38.2926 10.2327 39.2439 11.0297 39.5328 12.6238C40.1831 12.1155 41.0259 11.5957 42.0615 11.0644C43.1211 10.5099 44.0602 10.2327 44.879 10.2327C45.7219 10.2327 46.4203 10.4984 46.9742 11.0297C47.528 11.538 47.805 12.2541 47.805 13.1782C47.805 14.1023 47.5401 15.6271 47.0103 17.7525C46.4805 19.8779 46.2156 21.3102 46.2156 22.0495C46.2156 22.7657 46.3239 23.1238 46.5407 23.1238C46.6852 23.1238 47.1789 22.9043 48.0217 22.4653L48.4191 22.2574L49.0693 23.4703C48.4432 24.071 47.5882 24.6485 46.5046 25.203C45.445 25.7343 44.5058 26 43.687 26C41.8808 26 40.9778 25.0182 40.9778 23.0545C40.9778 22.3383 41.2306 20.9059 41.7363 18.7574C42.2661 16.5858 42.531 15.1766 42.531 14.5297C42.531 13.8597 42.3264 13.5248 41.917 13.5248C41.2186 13.5248 40.4239 13.7789 39.5328 14.2871C39.4847 14.7492 39.1475 16.3201 38.5214 19C37.9194 21.6799 37.6183 23.7591 37.6183 25.2376C36.92 25.538 35.2824 25.6881 32.7056 25.6881C32.6575 25.434 32.6334 24.8218 32.6334 23.8515C32.6334 22.8812 32.9103 21.2294 33.4642 18.896C34.0422 16.5627 34.3311 15.0842 34.3311 14.4604C34.3311 13.8366 34.1024 13.5248 33.6448 13.5248C32.9224 13.5248 32.1277 13.802 31.2607 14.3564C31.2125 14.5644 30.9717 15.5809 30.5382 17.4059C29.6713 21.0561 29.2378 23.6551 29.2378 25.203C28.395 25.5264 26.8778 25.6881 24.6863 25.6881Z" fill="white"/>
<path d="M50.0943 19.5891C50.0943 16.7013 50.9973 14.4257 52.8035 12.7624C54.6337 11.0759 56.7048 10.2327 59.0166 10.2327C60.4375 10.2327 61.6054 10.5677 62.5206 11.2376C63.4357 11.9076 63.8932 12.8086 63.8932 13.9406C63.8932 15.0495 63.5922 15.9852 62.9901 16.7475C62.4122 17.5099 61.7018 18.099 60.8589 18.5149C59.1491 19.3234 57.5838 19.8317 56.1629 20.0396L55.296 20.1436C55.4645 22.3152 56.3917 23.401 58.0774 23.401C58.6554 23.401 59.2695 23.2624 59.9197 22.9851C60.5699 22.7079 61.0756 22.4307 61.4369 22.1535L61.9787 21.7376L62.8457 22.8465C62.653 23.1007 62.2677 23.4356 61.6897 23.8515C61.1118 24.2673 60.5699 24.6139 60.0642 24.8911C58.6674 25.6304 57.1382 26 55.4766 26C53.8149 26 52.5025 25.434 51.5392 24.302C50.5759 23.17 50.0943 21.599 50.0943 19.5891ZM55.2598 18.4455C56.488 18.2376 57.4633 17.7409 58.1858 16.9554C58.9083 16.17 59.2695 15.1535 59.2695 13.9059C59.2695 12.6584 58.8842 12.0347 58.1136 12.0347C57.1984 12.0347 56.488 12.7855 55.9823 14.2871C55.5007 15.7657 55.2598 17.1518 55.2598 18.4455Z" fill="white"/>
<path d="M65.6421 25.6881H64.9557C64.9557 24.6023 65.2929 22.5231 65.9672 19.4505C66.6656 16.3779 67.0147 14.6337 67.0147 14.2178C67.0147 13.4554 66.6776 12.6469 66.0033 11.7921L65.6782 11.3762L65.7143 10.9257C67.0147 10.5792 69.0978 10.4059 71.9636 10.4059C72.2766 10.7987 72.4452 11.5149 72.4693 12.5545C74.5644 11.0066 76.3344 10.2327 77.7794 10.2327C78.6463 10.2327 79.3327 10.5215 79.8384 11.099C80.3682 11.6766 80.6331 12.4043 80.6331 13.2822C80.6331 14.137 80.3561 15.6271 79.8023 17.7525C79.2484 19.8779 78.9714 21.3102 78.9714 22.0495C78.9714 22.7657 79.0678 23.1238 79.2604 23.1238C79.4049 23.1238 79.9106 22.9043 80.7776 22.4653L81.211 22.2574L81.8613 23.4703C81.6445 23.6551 81.3555 23.8861 80.9943 24.1634C80.6331 24.4406 79.9588 24.8218 78.9714 25.3069C78.0081 25.769 77.1412 26 76.3706 26C74.6126 26 73.7336 25.0413 73.7336 23.1238C73.7336 22.3152 73.9985 20.8251 74.5283 18.6535C75.0822 16.4818 75.3591 15.0842 75.3591 14.4604C75.3591 13.8366 75.1544 13.5248 74.745 13.5248C74.0467 13.5248 73.1918 13.8135 72.1803 14.3911C72.1081 14.7838 71.8673 15.8234 71.4579 17.5099C70.615 21.137 70.1936 23.7013 70.1936 25.203C69.3507 25.5264 67.8335 25.6881 65.6421 25.6881Z" fill="white"/>
<path d="M94.3169 10.6485C94.2687 11.2261 94.064 11.896 93.7028 12.6584C92.7877 12.566 91.9207 12.5198 91.1019 12.5198H90.4517C89.344 17.6716 88.7901 20.8828 88.7901 22.1535C88.7901 22.8234 88.9346 23.1584 89.2235 23.1584C89.5366 23.1584 90.3434 22.8696 91.6438 22.2921L92.294 23.4356C90.1507 25.1452 88.1639 26 86.3337 26C85.4909 26 84.7925 25.7459 84.2386 25.2376C83.7088 24.7294 83.4439 24.0594 83.4439 23.2277C83.4439 22.3729 83.5402 21.4142 83.7329 20.3515C83.9496 19.2888 84.2386 17.995 84.5998 16.4703C84.961 14.9224 85.2259 13.6749 85.3945 12.7277C84.5035 12.797 83.8412 12.8663 83.4078 12.9356C83.3596 12.6584 83.3355 12.2888 83.3355 11.8267C83.3355 11.3416 83.3716 10.9488 83.4439 10.6485H85.7196C85.9123 9.40099 86.0086 8.22277 86.0086 7.11386L85.9725 6.0396V5.93564C87.8509 5.31188 89.6209 5 91.2826 5C91.3789 5.46205 91.427 6.0396 91.427 6.73267C91.427 7.42574 91.2224 8.73102 90.813 10.6485H94.3169Z" fill="white"/>
<path d="M98.8269 26C97.1652 26 95.8648 25.4455 94.9256 24.3366C93.9864 23.2046 93.5168 21.6337 93.5168 19.6238C93.5168 17.0594 94.2272 14.8531 95.6481 13.005C97.093 11.1568 99.0797 10.2327 101.608 10.2327L102.909 10.302C103.318 10.0941 103.776 9.9901 104.281 9.9901C106.184 9.9901 107.135 11.7112 107.135 15.1535C108.122 15.1073 109.122 14.9802 110.133 14.7723L110.711 14.6337L110.928 15.9852C110.133 16.3086 109.062 16.5974 107.713 16.8515L106.991 16.9901C106.533 19.4158 105.606 21.5297 104.209 23.3317C102.812 25.1106 101.018 26 98.8269 26ZM100.778 23.0198C101.789 23.0198 102.692 22.396 103.487 21.1485C104.306 19.901 104.871 18.5842 105.185 17.198C102.608 17.198 101.319 16.2739 101.319 14.4257C101.319 13.6865 101.476 12.9934 101.789 12.3465L101.97 12C101.873 11.9538 101.753 11.9307 101.608 11.9307C101.464 11.9307 101.355 11.9538 101.283 12C100.681 12.3696 100.115 13.236 99.5855 14.599C99.0557 15.962 98.7908 17.5215 98.7908 19.2772C98.7908 21.7723 99.453 23.0198 100.778 23.0198Z" fill="white"/>
<path d="M108.779 25.6881H108.526C108.478 25.5033 108.454 25.0875 108.454 24.4406C108.454 23.7706 108.779 21.9917 109.429 19.104C110.079 16.2162 110.405 14.5644 110.405 14.1485C110.405 13.4323 110.067 12.6469 109.393 11.7921L109.068 11.3762L109.104 10.9257C110.405 10.5792 112.488 10.4059 115.353 10.4059C115.642 11.0066 115.787 11.8498 115.787 12.9356C116.052 12.5198 116.606 11.9653 117.449 11.2723C118.291 10.5792 119.158 10.2327 120.049 10.2327C121.35 10.2327 122 11.3185 122 13.4901C121.88 13.6287 121.711 13.8135 121.494 14.0446C121.302 14.2525 120.892 14.5528 120.266 14.9455C119.664 15.3383 119.074 15.5809 118.496 15.6733C118.472 15.6733 118.267 15.3614 117.882 14.7376C117.497 14.1139 117.208 13.802 117.015 13.802C116.413 14.0099 115.883 14.3564 115.426 14.8416C114.318 19.6238 113.764 22.7195 113.764 24.1287C113.764 24.637 113.776 24.995 113.8 25.203C112.957 25.5264 111.284 25.6881 108.779 25.6881Z" fill="white"/>
<path d="M18.36 20.052C19.056 21.396 19.644 22.308 20.124 22.788C20.628 23.268 21.012 23.508 21.276 23.508C21.564 23.508 22.02 23.424 22.644 23.256L23.184 24.66C22.464 25.188 21.576 25.62 20.52 25.956C19.488 26.268 18.576 26.424 17.784 26.424C15.936 26.424 14.568 25.536 13.68 23.76C13.176 22.752 12.36 20.58 11.232 17.244C9.024 20.1 7.032 22.956 5.256 25.812C5.016 26.22 4.716 26.424 4.356 26.424C3.996 26.424 3.516 26.28 2.916 25.992C2.316 25.728 1.848 25.392 1.512 24.984C2.424 23.52 3.372 22.2 4.356 21.024C5.34 19.848 6.036 19.02 6.444 18.54C6.852 18.06 7.5 17.328 8.388 16.344C9.3 15.36 9.924 14.676 10.26 14.292C9.228 11.388 8.7 9.912 8.676 9.864C7.452 10.632 6.132 11.016 4.716 11.016C3.324 11.016 2.184 10.572 1.296 9.684C0.432 8.772 0 7.62 0 6.228C0 4.452 0.672001 2.976 2.016 1.8C3.36 0.6 4.884 0 6.588 0C8.868 0 10.584 1.02 11.736 3.06C12.264 4.02 13.128 6.204 14.328 9.612C16.296 7.092 18.24 4.236 20.16 1.044C20.376 0.636001 20.7 0.432001 21.132 0.432001C22.14 0.432001 23.076 0.888001 23.94 1.8C22.98 3.456 21.768 5.124 20.304 6.804C19.824 7.38 18.984 8.34 17.784 9.684C16.608 11.028 15.804 11.952 15.372 12.456C16.692 16.176 17.688 18.708 18.36 20.052ZM2.232 6.264C2.232 6.936 2.46 7.548 2.916 8.1C3.396 8.628 4.08 8.892 4.968 8.892C5.856 8.892 6.804 8.496 7.812 7.704C7.644 7.296 7.464 6.888 7.272 6.48C6.408 4.776 5.412 3.924 4.284 3.924C3.66 3.924 3.156 4.152 2.772 4.608C2.412 5.04 2.232 5.592 2.232 6.264Z" fill="url(#paint0_linear_1_2)"/>
<defs>
<linearGradient id="paint0_linear_1_2" x1="21.216" y1="-0.507995" x2="2.216" y2="26.992" gradientUnits="userSpaceOnUse">
<stop stop-color="#A500F2"/>
<stop offset="1" stop-color="#E548FF"/>
</linearGradient>
</defs>
</svg>
