<svg width="124" height="27" viewBox="0 0 124 27" fill="none" xmlns="http://www.w3.org/2000/svg">
<path d="M26.2201 26.108H25.5361C25.5361 24.98 25.8721 22.82 26.5441 19.628C27.2401 16.436 27.5881 14.624 27.5881 14.192C27.5881 13.4 27.2521 12.56 26.5801 11.672L26.2561 11.24L26.2921 10.772C27.5881 10.412 29.6641 10.232 32.5201 10.232C32.8561 10.688 33.0241 11.432 33.0241 12.464C35.1841 10.856 36.9001 10.052 38.1721 10.052C39.7801 10.052 40.7281 10.88 41.0161 12.536C41.6641 12.008 42.5041 11.468 43.5361 10.916C44.5921 10.34 45.5281 10.052 46.3441 10.052C47.1841 10.052 47.8801 10.328 48.4321 10.88C48.9841 11.408 49.2601 12.152 49.2601 13.112C49.2601 14.072 48.9961 15.656 48.4681 17.864C47.9401 20.072 47.6761 21.56 47.6761 22.328C47.6761 23.072 47.7841 23.444 48.0001 23.444C48.1441 23.444 48.6361 23.216 49.4761 22.76L49.8721 22.544L50.5201 23.804C49.8961 24.428 49.0441 25.028 47.9641 25.604C46.9081 26.156 45.9721 26.432 45.1561 26.432C43.3561 26.432 42.4561 25.412 42.4561 23.372C42.4561 22.628 42.7081 21.14 43.2121 18.908C43.7401 16.652 44.0041 15.188 44.0041 14.516C44.0041 13.82 43.8001 13.472 43.3921 13.472C42.6961 13.472 41.9041 13.736 41.0161 14.264C40.9681 14.744 40.6321 16.376 40.0081 19.16C39.4081 21.944 39.1081 24.104 39.1081 25.64C38.4121 25.952 36.7801 26.108 34.2121 26.108C34.1641 25.844 34.1401 25.208 34.1401 24.2C34.1401 23.192 34.4161 21.476 34.9681 19.052C35.5441 16.628 35.8321 15.092 35.8321 14.444C35.8321 13.796 35.6041 13.472 35.1481 13.472C34.4281 13.472 33.6361 13.76 32.7721 14.336C32.7241 14.552 32.4841 15.608 32.0521 17.504C31.1881 21.296 30.7561 23.996 30.7561 25.604C29.9161 25.94 28.4041 26.108 26.2201 26.108Z" fill="black"/>
<path d="M51.5416 19.772C51.5416 16.772 52.4416 14.408 54.2416 12.68C56.0656 10.928 58.1296 10.052 60.4336 10.052C61.8496 10.052 63.0136 10.4 63.9256 11.096C64.8376 11.792 65.2936 12.728 65.2936 13.904C65.2936 15.056 64.9936 16.028 64.3936 16.82C63.8176 17.612 63.1096 18.224 62.2696 18.656C60.5656 19.496 59.0056 20.024 57.5896 20.24L56.7256 20.348C56.8936 22.604 57.8176 23.732 59.4976 23.732C60.0736 23.732 60.6856 23.588 61.3336 23.3C61.9816 23.012 62.4856 22.724 62.8456 22.436L63.3856 22.004L64.2496 23.156C64.0576 23.42 63.6736 23.768 63.0976 24.2C62.5216 24.632 61.9816 24.992 61.4776 25.28C60.0856 26.048 58.5616 26.432 56.9056 26.432C55.2496 26.432 53.9416 25.844 52.9816 24.668C52.0216 23.492 51.5416 21.86 51.5416 19.772ZM56.6896 18.584C57.9136 18.368 58.8856 17.852 59.6056 17.036C60.3256 16.22 60.6856 15.164 60.6856 13.868C60.6856 12.572 60.3016 11.924 59.5336 11.924C58.6216 11.924 57.9136 12.704 57.4096 14.264C56.9296 15.8 56.6896 17.24 56.6896 18.584Z" fill="black"/>
<path d="M67.0365 26.108H66.3525C66.3525 24.98 66.6885 22.82 67.3605 19.628C68.0565 16.436 68.4045 14.624 68.4045 14.192C68.4045 13.4 68.0685 12.56 67.3965 11.672L67.0725 11.24L67.1085 10.772C68.4045 10.412 70.4805 10.232 73.3365 10.232C73.6485 10.64 73.8165 11.384 73.8405 12.464C75.9285 10.856 77.6925 10.052 79.1325 10.052C79.9965 10.052 80.6805 10.352 81.1845 10.952C81.7125 11.552 81.9765 12.308 81.9765 13.22C81.9765 14.108 81.7005 15.656 81.1485 17.864C80.5965 20.072 80.3205 21.56 80.3205 22.328C80.3205 23.072 80.4165 23.444 80.6085 23.444C80.7525 23.444 81.2565 23.216 82.1205 22.76L82.5525 22.544L83.2005 23.804C82.9845 23.996 82.6965 24.236 82.3365 24.524C81.9765 24.812 81.3045 25.208 80.3205 25.712C79.3605 26.192 78.4965 26.432 77.7285 26.432C75.9765 26.432 75.1005 25.436 75.1005 23.444C75.1005 22.604 75.3645 21.056 75.8925 18.8C76.4445 16.544 76.7205 15.092 76.7205 14.444C76.7205 13.796 76.5165 13.472 76.1085 13.472C75.4125 13.472 74.5605 13.772 73.5525 14.372C73.4805 14.78 73.2405 15.86 72.8325 17.612C71.9925 21.38 71.5725 24.044 71.5725 25.604C70.7325 25.94 69.2205 26.108 67.0365 26.108Z" fill="black"/>
<path d="M95.6138 10.484C95.5658 11.084 95.3618 11.78 95.0018 12.572C94.0898 12.476 93.2258 12.428 92.4098 12.428H91.7618C90.6578 17.78 90.1058 21.116 90.1058 22.436C90.1058 23.132 90.2498 23.48 90.5378 23.48C90.8498 23.48 91.6538 23.18 92.9498 22.58L93.5978 23.768C91.4618 25.544 89.4818 26.432 87.6578 26.432C86.8178 26.432 86.1218 26.168 85.5698 25.64C85.0418 25.112 84.7778 24.416 84.7778 23.552C84.7778 22.664 84.8738 21.668 85.0658 20.564C85.2818 19.46 85.5698 18.116 85.9298 16.532C86.2898 14.924 86.5538 13.628 86.7218 12.644C85.8338 12.716 85.1738 12.788 84.7418 12.86C84.6938 12.572 84.6698 12.188 84.6698 11.708C84.6698 11.204 84.7058 10.796 84.7778 10.484H87.0458C87.2378 9.18797 87.3338 7.96397 87.3338 6.81197L87.2978 5.69597V5.58797C89.1698 4.93997 90.9338 4.61597 92.5898 4.61597C92.6858 5.09597 92.7338 5.69597 92.7338 6.41597C92.7338 7.13597 92.5298 8.49197 92.1218 10.484H95.6138Z" fill="black"/>
<path d="M100.108 26.432C98.4524 26.432 97.1564 25.856 96.2204 24.704C95.2844 23.528 94.8164 21.896 94.8164 19.808C94.8164 17.144 95.5244 14.852 96.9404 12.932C98.3804 11.012 100.36 10.052 102.88 10.052L104.176 10.124C104.584 9.90797 105.04 9.79997 105.544 9.79997C107.44 9.79997 108.388 11.588 108.388 15.164C109.372 15.116 110.368 14.984 111.376 14.768L111.952 14.624L112.168 16.028C111.376 16.364 110.308 16.664 108.964 16.928L108.244 17.072C107.788 19.592 106.864 21.788 105.472 23.66C104.08 25.508 102.292 26.432 100.108 26.432ZM102.052 23.336C103.06 23.336 103.96 22.688 104.752 21.392C105.568 20.096 106.132 18.728 106.444 17.288C103.876 17.288 102.592 16.328 102.592 14.408C102.592 13.64 102.748 12.92 103.06 12.248L103.24 11.888C103.144 11.84 103.024 11.816 102.88 11.816C102.736 11.816 102.628 11.84 102.556 11.888C101.956 12.272 101.392 13.172 100.864 14.588C100.336 16.004 100.072 17.624 100.072 19.448C100.072 22.04 100.732 23.336 102.052 23.336Z" fill="black"/>
<path d="M110.027 26.108H109.775C109.727 25.916 109.703 25.484 109.703 24.812C109.703 24.116 110.027 22.268 110.675 19.268C111.323 16.268 111.647 14.552 111.647 14.12C111.647 13.376 111.311 12.56 110.639 11.672L110.315 11.24L110.351 10.772C111.647 10.412 113.723 10.232 116.579 10.232C116.867 10.856 117.011 11.732 117.011 12.86C117.275 12.428 117.827 11.852 118.667 11.132C119.507 10.412 120.371 10.052 121.259 10.052C122.555 10.052 123.203 11.18 123.203 13.436C123.083 13.58 122.915 13.772 122.699 14.012C122.507 14.228 122.099 14.54 121.475 14.948C120.875 15.356 120.287 15.608 119.711 15.704C119.687 15.704 119.483 15.38 119.099 14.732C118.715 14.084 118.427 13.76 118.235 13.76C117.635 13.976 117.107 14.336 116.651 14.84C115.547 19.808 114.995 23.024 114.995 24.488C114.995 25.016 115.007 25.388 115.031 25.604C114.191 25.94 112.523 26.108 110.027 26.108Z" fill="black"/>
<path d="M19.1442 20.06C19.8402 21.404 20.4282 22.316 20.9082 22.796C21.4122 23.276 21.7962 23.516 22.0602 23.516C22.3482 23.516 22.8042 23.432 23.4282 23.264L23.9682 24.668C23.2482 25.196 22.3602 25.628 21.3042 25.964C20.2722 26.276 19.3602 26.432 18.5682 26.432C16.7202 26.432 15.3522 25.544 14.4642 23.768C13.9602 22.76 13.1442 20.588 12.0162 17.252C9.80818 20.108 7.81618 22.964 6.04018 25.82C5.80018 26.228 5.50018 26.432 5.14018 26.432C4.78018 26.432 4.30018 26.288 3.70018 26C3.10018 25.736 2.63218 25.4 2.29618 24.992C3.20818 23.528 4.15618 22.208 5.14018 21.032C6.12418 19.856 6.82018 19.028 7.22818 18.548C7.63618 18.068 8.28418 17.336 9.17218 16.352C10.0842 15.368 10.7082 14.684 11.0442 14.3C10.0122 11.396 9.48418 9.92 9.46018 9.872C8.23618 10.64 6.91618 11.024 5.50018 11.024C4.10818 11.024 2.96818 10.58 2.08018 9.692C1.21618 8.78 0.78418 7.628 0.78418 6.236C0.78418 4.46 1.45618 2.984 2.80018 1.808C4.14418 0.607996 5.66818 0.00799561 7.37218 0.00799561C9.65218 0.00799561 11.3682 1.028 12.5202 3.068C13.0482 4.028 13.9122 6.212 15.1122 9.62C17.0802 7.1 19.0242 4.244 20.9442 1.052C21.1602 0.643997 21.4842 0.439997 21.9162 0.439997C22.9242 0.439997 23.8602 0.895996 24.7242 1.808C23.7642 3.464 22.5522 5.132 21.0882 6.812C20.6082 7.388 19.7682 8.348 18.5682 9.692C17.3922 11.036 16.5882 11.96 16.1562 12.464C17.4762 16.184 18.4722 18.716 19.1442 20.06ZM3.01618 6.272C3.01618 6.944 3.24418 7.556 3.70018 8.108C4.18018 8.636 4.86418 8.9 5.75218 8.9C6.64018 8.9 7.58818 8.504 8.59618 7.712C8.42818 7.304 8.24818 6.896 8.05618 6.488C7.19218 4.784 6.19618 3.932 5.06818 3.932C4.44418 3.932 3.94018 4.16 3.55618 4.616C3.19618 5.048 3.01618 5.6 3.01618 6.272Z" fill="url(#paint0_linear_1_2)"/>
<defs>
<linearGradient id="paint0_linear_1_2" x1="22.0002" y1="-0.499999" x2="3.00018" y2="27" gradientUnits="userSpaceOnUse">
<stop stop-color="#A500F2"/>
<stop offset="1" stop-color="#E548FF"/>
</linearGradient>
</defs>
</svg>
